HIERARCHY
ROOT Hips
{
	OFFSET 0.00000 0.00000 0.00000
	CHANNELS 6 Xposition Yposition Zposition Zrotation Yrotation Xrotation 
	JOINT LHipJoint
	{
		OFFSET 0 0 0
		CHANNELS 3 Zrotation Yrotation Xrotation
		JOINT LeftUpLeg
		{
			OFFSET 1.57338 -1.94743 0.52196
			CHANNELS 3 Zrotation Yrotation Xrotation
			JOINT LeftLeg
			{
				OFFSET 2.60333 -7.15259 0.00000
				CHANNELS 3 Zrotation Yrotation Xrotation
				JOINT LeftFoot
				{
					OFFSET 2.77855 -7.63400 0.00000
					CHANNELS 3 Zrotation Yrotation Xrotation
					JOINT LeftToeBase
					{
						OFFSET 0.19847 -0.54529 2.28466
						CHANNELS 3 Zrotation Yrotation Xrotation
						End Site
						{
							OFFSET 0.00000 -0.00000 1.17993
						}
					}
				}
			}
		}
	}
	JOINT RHipJoint
	{
		OFFSET 0 0 0
		CHANNELS 3 Zrotation Yrotation Xrotation
		JOINT RightUpLeg
		{
			OFFSET -1.61527 -1.94743 0.52196
			CHANNELS 3 Zrotation Yrotation Xrotation
			JOINT RightLeg
			{
				OFFSET -2.53829 -6.97390 0.00000
				CHANNELS 3 Zrotation Yrotation Xrotation
				JOINT RightFoot
				{
					OFFSET -2.80762 -7.71387 0.00000
					CHANNELS 3 Zrotation Yrotation Xrotation
					JOINT RightToeBase
					{
						OFFSET -0.30536 -0.83898 2.28801
						CHANNELS 3 Zrotation Yrotation Xrotation
						End Site
						{
							OFFSET -0.00000 -0.00000 1.21323
						}
					}
				}
			}
		}
	}
	JOINT LowerBack
	{
		OFFSET 0 0 0
		CHANNELS 3 Zrotation Yrotation Xrotation
		JOINT Spine
		{
			OFFSET -0.04381 1.99497 -0.19778
			CHANNELS 3 Zrotation Yrotation Xrotation
			JOINT Spine1
			{
				OFFSET -0.01959 2.01295 -0.04372
				CHANNELS 3 Zrotation Yrotation Xrotation
				JOINT Neck
				{
					OFFSET 0 0 0
					CHANNELS 3 Zrotation Yrotation Xrotation
					JOINT Neck1
					{
						OFFSET -0.05459 1.76913 0.09708
						CHANNELS 3 Zrotation Yrotation Xrotation
						JOINT Head
						{
							OFFSET 0.09461 1.77368 -0.11172
							CHANNELS 3 Zrotation Yrotation Xrotation
							End Site
							{
								OFFSET 0.03812 1.78157 -0.04834
							}
						}
					}
				}
				JOINT LeftShoulder
				{
					OFFSET 0 0 0
					CHANNELS 3 Zrotation Yrotation Xrotation
					JOINT LeftArm
					{
						OFFSET 3.50922 1.24034 -0.28866
						CHANNELS 3 Zrotation Yrotation Xrotation
						JOINT LeftForeArm
						{
							OFFSET 5.40188 -0.00000 0.00000
							CHANNELS 3 Zrotation Yrotation Xrotation
							JOINT LeftHand
							{
								OFFSET 3.68559 -0.00000 0.00000
								CHANNELS 3 Zrotation Yrotation Xrotation
								JOINT LeftFingerBase
								{
									OFFSET 0 0 0
									CHANNELS 3 Zrotation Yrotation Xrotation
									JOINT LeftHandIndex1
									{
										OFFSET 0.61753 -0.00000 0.00000
										CHANNELS 3 Zrotation Yrotation Xrotation
										End Site
										{
											OFFSET 0.49787 -0.00000 0.00000
										}
									}
								}
								JOINT LThumb
								{
									OFFSET 0 0 0
									CHANNELS 3 Zrotation Yrotation Xrotation
									End Site
									{
										OFFSET 0.50547 -0.00000 0.50547
									}
								}
							}
						}
					}
				}
				JOINT RightShoulder
				{
					OFFSET 0 0 0
					CHANNELS 3 Zrotation Yrotation Xrotation
					JOINT RightArm
					{
						OFFSET -2.95373 1.39649 -0.27346
						CHANNELS 3 Zrotation Yrotation Xrotation
						JOINT RightForeArm
						{
							OFFSET -6.10670 -0.00000 -0.00000
							CHANNELS 3 Zrotation Yrotation Xrotation
							JOINT RightHand
							{
								OFFSET -3.63052 -0.00000 0.00000
								CHANNELS 3 Zrotation Yrotation Xrotation
								JOINT RightFingerBase
								{
									OFFSET 0 0 0
									CHANNELS 3 Zrotation Yrotation Xrotation
									JOINT RightHandIndex1
									{
										OFFSET -0.58385 -0.00000 0.00000
										CHANNELS 3 Zrotation Yrotation Xrotation
										End Site
										{
											OFFSET -0.47071 -0.00000 0.00000
										}
									}
								}
								JOINT RThumb
								{
									OFFSET 0 0 0
									CHANNELS 3 Zrotation Yrotation Xrotation
									End Site
									{
										OFFSET -0.47790 -0.00000 0.47790
									}
								}
							}
						}
					}
				}
			}
		}
	}
}
MOTION
Frames: 10
Frame Time: 0.0307692
0.00 0.00 0.00 185.4330 5.9897 -174.0350 0.0000 0.0000 0.0000 -21.1170 5.4627 -20.8748 3.2094 11.0266 32.3696 0.6314 5.7828 -18.2212 0.3398 -3.7459 -10.3628 0.0000 0.0000 0.0000 21.4179 20.0639 -7.2042 -2.9989 -10.6933 31.2524 -1.1085 -3.1125 -21.2353 -0.3284 3.6833 -10.1873 -2.1926 0.0013 9.4701 -0.6377 -0.2086 0.2968 0.5962 -0.0330 -4.9995 -22.6432 -3.6390 -23.0040 17.9170 -1.2508 27.5258 11.2847 -0.2304 13.4076 0.0000 0.0000 0.0000 -78.4829 -5.8184 41.5133 62.4612 -56.9309 -36.3965 -0.0000 0.0000 -4.7294 13.8626 22.2705 5.3431 -7.1250 0.0000 -0.0000 -15.3629 52.1989 -2.7763 0.0000 0.0000 0.0000 72.9601 11.6374 39.7592 -67.7325 58.0409 -40.8426 0.0000 -0.0000 -28.9940 -33.2684 -0.6657 0.4367 7.1250 -0.0000 -0.0000 -5.3206 -30.7516 -1.8591
0.00 0.00 0.00 184.5200 32.0392 -177.3190 0.0000 0.0000 0.0000 -21.5166 8.9764 -7.6365 2.3951 9.6446 27.8334 0.3875 19.9671 -30.9551 0.3563 -3.8351 -10.6131 0.0000 0.0000 0.0000 24.1476 25.1023 -1.9144 -2.5008 -9.8394 28.4581 -0.1980 2.8368 -7.9034 -0.7416 5.5012 -15.3438 -1.7068 -2.1103 4.6051 1.4091 -2.8612 -0.9671 2.6211 -1.3723 -3.4222 -49.1346 -4.1223 -44.4072 34.0760 17.8808 41.5431 28.9476 6.8684 12.7140 -0.0000 0.0000 0.0000 -80.3358 24.9519 25.3772 53.9870 -54.4822 -29.3897 -0.0000 0.0000 -20.6297 45.2830 13.6221 13.3795 -7.1250 0.0000 -0.0000 17.5395 48.1767 1.4152 -0.0000 0.0000 0.0000 87.7720 23.4126 77.0789 -44.6241 50.5830 -21.9479 0.0000 -0.0000 -9.7553 -30.7425 -3.3199 1.9727 7.1250 -0.0000 -0.0000 -3.3863 -33.8266 -0.9294
0.00 0.00 0.00 185.2690 -4.4270 -172.7910 0.0000 0.0000 0.0000 -20.4261 4.0296 -26.2519 4.2397 12.4727 37.4254 1.1060 -0.3958 -19.7582 0.1675 -2.6367 -7.2690 0.0000 0.0000 0.0000 21.6494 18.3507 -9.3355 -3.9722 -12.1233 36.1696 0.5183 -12.8864 -7.4983 -0.0007 0.1729 -0.4750 -4.9397 -0.1760 14.4555 -1.5178 -1.3677 1.0749 1.4665 -0.6338 -6.9054 -16.5092 -2.0032 -26.9013 17.9222 -2.1212 25.6304 9.8043 -0.3787 13.5090 0.0000 0.0000 0.0000 -78.9547 -10.7832 55.9608 57.4313 -55.5857 -32.2127 -0.0000 0.0000 -2.7154 45.1110 20.2076 19.1247 -7.1250 0.0000 -0.0000 18.8220 56.5167 5.4489 0.0000 0.0000 0.0000 83.6469 9.1028 25.0851 -65.3665 57.5782 -38.8402 0.0000 -0.0000 -12.9591 -43.5554 0.8737 -0.8306 7.1250 -0.0000 -0.0000 -13.1416 -28.6655 -5.3564
0.00 0.00 0.00 185.5350 -10.7506 -168.7740 0.0000 0.0000 0.0000 -20.9254 8.6340 -43.8936 7.8644 16.0186 52.0728 0.9422 -10.3210 -17.7108 0.0530 1.4862 4.0876 0.0000 0.0000 0.0000 22.0599 22.0853 -14.6559 -3.4805 -11.4350 33.7615 0.1919 -10.0455 3.1600 -0.1227 2.2577 -6.2184 -6.2810 -0.8449 16.4900 -1.7457 -2.6916 0.9566 2.3118 -1.2089 -8.0428 -14.1430 -5.7962 -22.1806 19.3615 -7.1725 9.0218 7.9590 -2.5084 7.7318 -0.0000 -0.0000 0.0000 -73.5761 -16.4821 60.7576 71.0031 -58.5915 -43.6260 -0.0000 0.0000 -2.8076 45.4662 20.8027 19.8485 -7.1250 0.0000 -0.0000 19.4140 57.3521 6.0260 -0.0000 -0.0000 0.0000 81.9770 7.5211 22.4466 -83.0819 59.8184 -54.0124 0.0000 -0.0000 -16.1337 -45.3177 -2.1847 2.2074 7.1250 -0.0000 -0.0000 -15.1093 -32.8083 -4.6528
0.00 0.00 0.00 182.7110 -20.1969 -165.7190 0.0000 0.0000 0.0000 -20.5905 2.1096 -59.9249 14.6388 19.2965 74.1462 0.5782 -17.9672 -17.4341 0.2890 3.4574 9.5549 0.0000 0.0000 0.0000 18.8146 26.4142 -15.3664 -1.7666 -8.3619 23.8188 0.8374 -16.3977 -2.0353 -0.0013 -0.2299 0.6318 -7.2935 -1.9782 19.5771 -2.5314 -4.8275 1.7064 2.6732 -2.2454 -8.7477 -10.4393 -7.8198 -15.2604 15.6451 -9.9197 -4.0128 5.7432 -4.8471 2.6250 0.0000 0.0000 0.0000 -72.1507 -26.3747 63.5597 105.7188 -59.0455 -73.5692 -0.0000 0.0000 -4.5687 44.5646 30.4813 26.5470 -7.1250 0.0000 -0.0000 20.1776 68.5477 11.5762 0.0000 0.0000 0.0000 78.8220 5.8477 13.7553 -118.8962 56.5970 -84.7390 0.0000 -0.0000 -21.6616 -44.6897 -8.9012 8.7024 7.1250 -0.0000 -0.0000 -15.9540 -41.8477 -1.2766
0.00 0.00 0.00 179.1910 -22.0720 -167.6500 0.0000 0.0000 0.0000 -22.1883 3.7158 -67.3679 19.9411 19.9999 89.8279 -0.0415 -22.4756 -15.5337 0.5132 4.5917 12.7474 0.0000 0.0000 0.0000 18.2215 26.2817 -11.3816 -1.6973 -8.2049 23.3381 1.2311 -19.2664 -5.3746 -0.0022 -0.3038 0.8348 -7.6124 -1.7472 19.6867 -2.8468 -4.6581 1.5643 2.4775 -2.1504 -8.9870 -11.5597 -8.6104 -13.7488 15.3068 -10.7733 -3.2448 5.7601 -5.2126 2.7611 0.0000 0.0000 0.0000 -70.1490 -34.2450 61.6054 110.1420 -58.4101 -77.3504 -0.0000 0.0000 -10.5365 42.0746 33.2327 26.3240 -7.1250 0.0000 -0.0000 15.8192 70.8454 9.8314 0.0000 0.0000 0.0000 74.9910 8.2216 10.3882 -131.2232 52.4901 -94.7994 0.0000 -0.0000 -23.1658 -42.2307 -10.6271 9.5031 7.1250 -0.0000 -0.0000 -13.9562 -43.7488 -0.4400
0.00 0.00 0.00 178.8560 -24.3017 -172.1170 0.0000 0.0000 0.0000 -19.9942 6.1006 -70.5100 23.3226 19.7332 99.7564 -0.3229 -23.0210 -13.8075 0.1129 2.1660 5.9647 0.0000 0.0000 0.0000 22.5347 20.5868 -9.4353 -2.3227 -9.5081 27.3981 0.0167 -13.7865 -19.3972 -0.0384 -1.2641 3.4759 -5.1398 -2.0797 21.4885 -1.7166 -4.4736 0.8059 2.3952 -1.9954 -10.9244 -12.0710 -8.3404 -10.8728 13.2556 -10.3472 -1.6755 5.3220 -4.9770 2.6054 -0.0000 0.0000 0.0000 -68.1800 -35.7655 56.2140 103.7532 -59.2731 -71.8816 -0.0000 0.0000 -17.6927 37.5665 31.1759 21.7112 -7.1250 0.0000 -0.0000 8.5985 67.1492 4.5986 -0.0000 0.0000 0.0000 70.2266 12.2213 13.3253 -135.1896 50.6753 -97.9080 0.0000 -0.0000 -18.1868 -41.6328 -16.3088 14.0150 7.1250 -0.0000 -0.0000 -14.1273 -50.8177 2.0604
0.00 0.00 0.00 176.7120 -24.9734 -175.3180 0.0000 0.0000 0.0000 -17.4439 9.4445 -75.4808 25.4073 19.2840 105.9933 -1.7426 -25.1907 -2.5348 0.0361 1.2272 3.3741 0.0000 0.0000 0.0000 23.9388 23.2304 -10.9078 -3.6054 -11.6160 34.3866 -0.5248 -15.3715 -26.4874 -0.2556 -3.2531 8.9843 -3.4413 -2.1693 21.0482 -1.8617 -4.2860 3.1629 1.1416 -2.1846 -8.2061 -11.9789 -8.2784 -10.0239 13.6639 -10.2957 -4.1695 5.5192 -5.0526 1.7490 0.0000 0.0000 0.0000 -64.5527 -43.4677 42.6013 89.0331 -59.9965 -59.1626 -0.0000 0.0000 -24.2750 28.0482 27.1062 13.6452 -7.1250 0.0000 -0.0000 -2.4931 60.0753 -0.9174 0.0000 0.0000 0.0000 78.7770 10.6677 20.5224 -123.1354 55.4148 -88.2544 0.0000 -0.0000 -22.0192 -27.2162 -1.8150 0.9332 7.1250 -0.0000 -0.0000 -0.5126 -32.0203 -0.1628
0.00 0.00 0.00 172.7520 -22.6381 -175.4790 0.0000 0.0000 0.0000 -16.8739 13.7517 -72.5486 25.4710 19.2667 106.1863 -3.1454 -30.4393 3.9684 0.9690 -6.2670 -17.5612 0.0000 0.0000 0.0000 18.7503 19.0686 -16.4237 -4.6629 -12.9938 39.3453 -1.1462 -7.3231 -24.1096 -0.3741 -3.9285 10.8755 -3.2589 -2.4245 23.4057 -2.3017 -4.8741 3.6674 0.8522 -2.5230 -8.9405 -12.8575 -7.7710 -10.4629 13.3208 -9.4590 -4.7227 5.6228 -4.6349 1.5654 -0.0000 0.0000 0.0000 -61.3278 -42.4137 32.9087 84.2317 -59.8739 -55.0066 -0.0000 0.0000 -26.1284 25.0906 23.7618 10.6843 -7.1250 0.0000 -0.0000 -4.5374 55.8482 -1.2095 -0.0000 0.0000 0.0000 80.6266 6.7411 32.1946 -109.9797 58.4366 -77.2121 0.0000 -0.0000 -10.4249 -31.0161 3.5968 -2.1601 7.1250 -0.0000 -0.0000 -3.3232 -25.7833 -1.5493
0.00 0.00 0.00 170.8130 -9.5195 -174.8180 0.0000 0.0000 0.0000 -18.4280 18.6777 -50.1595 17.8322 19.8870 83.6502 -0.9130 -16.6408 5.5971 2.0794 -9.0295 -25.8878 0.0000 0.0000 0.0000 14.5240 19.7735 -24.1207 -6.2565 -14.6724 46.0026 -1.3471 1.5867 -21.4839 -0.4461 -4.2853 11.8806 -2.7628 -1.8200 21.5720 -2.6169 -3.9786 3.7511 -0.1211 -2.1713 -7.9578 -12.7130 -4.5666 -12.2494 11.6263 -5.1641 -6.7029 5.3847 -2.5878 0.6239 -0.0000 -0.0000 0.0000 -61.3544 -33.6707 15.8909 93.0604 -59.9646 -62.6501 -0.0000 0.0000 -22.5238 19.1176 22.7922 7.6479 -7.1250 0.0000 -0.0000 -10.3761 53.6579 -2.2276 -0.0000 -0.0000 0.0000 79.2291 18.4246 44.6137 -99.9432 59.6231 -68.6001 0.0000 0.0000 2.8627 -30.5606 0.6143 -0.3627 7.1250 -0.0000 -0.0000 -3.1254 -29.2600 -1.2006
